<svg width="32" height="22" viewBox="0 0 32 22" fill="none" xmlns="http://www.w3.org/2000/svg">
<path d="M16 6.75C17.1272 6.75 18.2082 7.19777 19.0052 7.9948C19.8023 8.79183 20.25 9.87283 20.25 11C20.25 12.1272 19.8023 13.2082 19.0052 14.0052C18.2082 14.8022 17.1272 15.25 16 15.25C14.8728 15.25 13.7918 14.8022 12.9948 14.0052C12.1978 13.2082 11.75 12.1272 11.75 11C11.75 9.87283 12.1978 8.79183 12.9948 7.9948C13.7918 7.19777 14.8728 6.75 16 6.75ZM16 0.375C23.0834 0.375 29.1325 4.78083 31.5834 11C29.1325 17.2192 23.0834 21.625 16 21.625C8.91669 21.625 2.86752 17.2192 0.416687 11C2.86752 4.78083 8.91669 0.375 16 0.375ZM3.50502 11C4.65005 13.3379 6.42804 15.3077 8.63686 16.6854C10.8457 18.0632 13.3967 18.7935 16 18.7935C18.6033 18.7935 21.1543 18.0632 23.3632 16.6854C25.572 15.3077 27.35 13.3379 28.495 11C27.35 8.66206 25.572 6.69227 23.3632 5.31456C21.1543 3.93684 18.6033 3.20646 16 3.20646C13.3967 3.20646 10.8457 3.93684 8.63686 5.31456C6.42804 6.69227 4.65005 8.66206 3.50502 11Z" fill="#2C2C2C"/>
</svg>
