<svg width="30" height="32" viewBox="0 0 30 32" fill="none" xmlns="http://www.w3.org/2000/svg">
<path d="M5.4001 12.7999C5.39922 10.8053 6.01967 8.85994 7.17522 7.23414C8.33078 5.60834 9.96405 4.38284 11.8481 3.72794C11.7751 3.27084 11.8022 2.80334 11.9275 2.35772C12.0527 1.9121 12.2731 1.49895 12.5736 1.14679C12.874 0.794621 13.2472 0.511823 13.6675 0.317903C14.0878 0.123984 14.5452 0.0235596 15.0081 0.0235596C15.471 0.0235596 15.9284 0.123984 16.3487 0.317903C16.769 0.511823 17.1422 0.794621 17.4426 1.14679C17.7431 1.49895 17.9635 1.9121 18.0887 2.35772C18.214 2.80334 18.2411 3.27084 18.1681 3.72794C20.0492 4.38553 21.679 5.61217 22.8315 7.23774C23.984 8.86332 24.6021 10.8073 24.6001 12.7999V22.3999L29.4001 25.5999V27.1999H0.600098V25.5999L5.4001 22.3999V12.7999ZM18.2001 28.7999C18.2001 29.6486 17.863 30.4626 17.2628 31.0627C16.6627 31.6628 15.8488 31.9999 15.0001 31.9999C14.1514 31.9999 13.3375 31.6628 12.7374 31.0627C12.1372 30.4626 11.8001 29.6486 11.8001 28.7999H18.2001Z" fill="white"/>
</svg>
