<svg width="24" height="12" viewBox="0 0 24 12" fill="none" xmlns="http://www.w3.org/2000/svg">
<path d="M12 0C12.7879 -1.66044e-08 13.5681 0.155194 14.2961 0.456722C15.0241 0.75825 15.6855 1.20021 16.2426 1.75736C16.7998 2.31451 17.2417 2.97595 17.5433 3.7039C17.8448 4.43185 18 5.21207 18 6C18 6.78793 17.8448 7.56815 17.5433 8.2961C17.2417 9.02405 16.7998 9.68549 16.2426 10.2426C15.6855 10.7998 15.0241 11.2417 14.2961 11.5433C13.5681 11.8448 12.7879 12 12 12H22V10H24V2H22V0H12ZM6 6C6 4.4087 6.63214 2.88258 7.75736 1.75736C8.88258 0.63214 10.4087 0 12 0H2V2H0V10H2V12H12C10.4087 12 8.88258 11.3679 7.75736 10.2426C6.63214 9.11742 6 7.5913 6 6Z" fill="#2C2C2C"/>
</svg>
